<svg id="visual" viewBox="0 0 900 600" width="900" height="600" xmlns="http://www.w3.org/2000/svg" xmlns:xlink="http://www.w3.org/1999/xlink" version="1.1"><g transform="translate(445.24431428691577 289.8858171683709)"><path d="M134.2 -202.5C155.9 -168.9 143.1 -105.6 153 -54.6C162.9 -3.5 195.6 35.3 203.3 82.8C210.9 130.3 193.6 186.5 155.6 220.2C117.6 253.8 58.8 264.9 18.4 239.6C-22 214.3 -44.1 152.7 -69.6 115C-95.1 77.3 -124.1 63.5 -151 36C-177.8 8.5 -202.6 -32.7 -193.7 -63.9C-184.8 -95.1 -142.4 -116.3 -104.5 -144.7C-66.6 -173 -33.3 -208.5 11.5 -224.3C56.2 -240.1 112.5 -236.1 134.2 -202.5" fill="none" stroke="#FF7A00" stroke-width="6"></path></g></svg>