<svg id="visual" viewBox="0 0 900 600" width="900" height="600" xmlns="http://www.w3.org/2000/svg" xmlns:xlink="http://www.w3.org/1999/xlink" version="1.1"><g transform="translate(415.0044624139449 317.5049496909743)"><path d="M93.6 -156.3C136.9 -137.2 198.4 -143.6 225.8 -121.8C253.2 -100 246.6 -50 235.3 -6.5C224.1 37 208.2 74 186.8 106.3C165.5 138.7 138.8 166.3 106.7 172.8C74.7 179.3 37.3 164.7 -2 168.1C-41.3 171.6 -82.7 193.2 -106.2 181.8C-129.7 170.3 -135.4 125.9 -145.6 90.1C-155.8 54.3 -170.4 27.2 -174.1 -2.2C-177.9 -31.5 -170.8 -63 -152.5 -84.7C-134.1 -106.3 -104.6 -118.1 -77.3 -146.5C-50 -174.9 -25 -220 0.1 -220.1C25.2 -220.3 50.3 -175.5 93.6 -156.3" fill="none" stroke="#FF7A00" stroke-width="6"></path></g></svg>