<svg width="19" height="20" viewBox="0 0 19 20" fill="none" xmlns="http://www.w3.org/2000/svg">
<path fill-rule="evenodd" clip-rule="evenodd" d="M13.7609 4.38194C13.5148 1.91977 11.513 4.3198e-05 9.07993 4.3198e-05C7.83118 -0.00542119 6.62897 0.507733 5.74205 1.42606C4.97216 2.22321 4.49489 3.26865 4.38232 4.38194H4.38148C2.67679 4.38194 1.24458 5.6831 0.842208 7.94234L0.114088 13.8124C-0.505695 18.1106 1.42857 20 5.21412 20H12.9627C16.4635 20 18.5559 17.8703 18.1262 14.0483L17.3746 7.98169C16.8927 5.69434 15.4973 4.38194 13.8293 4.38194H13.7609ZM12.3577 4.38194C12.1199 2.72151 10.7427 1.44777 9.077 1.44777C8.1956 1.44392 7.34903 1.80527 6.72449 2.45193C6.21741 2.97696 5.8906 3.65495 5.7856 4.38194H12.3577ZM4.38149 5.82968H13.8294C14.8076 5.82968 15.6669 6.63795 16.0043 8.22992L16.7158 13.9973C17.1393 17.0658 15.7297 18.5523 12.9627 18.5523H5.21413C2.21795 18.5523 1.00879 17.3712 1.49303 14.0122L2.2172 8.16662C2.49392 6.61889 3.36262 5.82968 4.38149 5.82968ZM11.8327 8.51639C12.2172 8.51639 12.5289 8.84048 12.5289 9.24026C12.5289 9.60672 12.267 9.90958 11.9272 9.95752L11.8327 9.96412H11.7902C11.4058 9.96412 11.0941 9.64004 11.0941 9.24026C11.0941 8.87379 11.356 8.57093 11.6958 8.523L11.7902 8.51639H11.8327ZM7.11676 9.24026C7.11676 8.84048 6.80508 8.51639 6.4206 8.51639H6.37811L6.28365 8.523C5.94385 8.57093 5.68195 8.87379 5.68195 9.24026C5.68195 9.64004 5.99363 9.96412 6.37811 9.96412H6.4206L6.51506 9.95752C6.85486 9.90958 7.11676 9.60672 7.11676 9.24026Z" fill="#0D0D0E"/>
</svg>
