<svg width="20" height="22" viewBox="0 0 20 22" fill="none" xmlns="http://www.w3.org/2000/svg">
<path d="M19.25 9.3973V14.2735C19.25 16.2098 19.2493 17.6122 19.1602 18.6435C19.0688 19.7011 18.8933 20.1919 18.6844 20.4412C18.2135 21.0032 17.524 21.295 16.8251 21.2443C16.5262 21.2227 16.0798 21.0159 15.2945 20.3351C14.5305 19.6728 13.5759 18.6834 12.2558 17.3136L12.2351 17.2922C11.9501 16.9963 11.7048 16.7418 11.4862 16.5497C11.2562 16.3475 11.0047 16.1671 10.6933 16.0642C10.2425 15.9152 9.75748 15.9152 9.30673 16.0642C8.99531 16.1671 8.74378 16.3475 8.51379 16.5497C8.2952 16.7418 8.04993 16.9963 7.76485 17.2922L7.74424 17.3136C6.42407 18.6834 5.46946 19.6728 4.70551 20.3351C3.92016 21.0159 3.4738 21.2227 3.17495 21.2443C2.476 21.295 1.7865 21.0032 1.31556 20.4412C1.10667 20.1919 0.931198 19.7011 0.839803 18.6435C0.75068 17.6122 0.75 16.2098 0.75 14.2735V9.3973C0.75 7.16188 0.751481 5.55807 0.909571 4.33798C1.06522 3.13671 1.36076 2.42125 1.86634 1.89665C2.36817 1.37594 3.04667 1.07453 4.19145 0.914832C5.36073 0.751712 6.89996 0.75 9.0566 0.75H10.9434C13.1 0.75 14.6393 0.751712 15.8085 0.914832C16.9533 1.07453 17.6318 1.37594 18.1337 1.89665C18.6392 2.42125 18.9348 3.13671 19.0904 4.33798C19.2485 5.55807 19.25 7.16189 19.25 9.3973Z" stroke="#0D0D0E" stroke-width="1.5"/>
</svg>
