<svg width="14" height="16" viewBox="0 0 14 16" fill="none" xmlns="http://www.w3.org/2000/svg">
<path fill-rule="evenodd" clip-rule="evenodd" d="M13.2222 3.2H10.1111V2.4C10.1111 1.07452 9.06644 0 7.77778 0H6.22222C4.93356 0 3.88889 1.07452 3.88889 2.4V3.2H0.777778C0.348223 3.2 0 3.55817 0 4C0 4.44183 0.348223 4.8 0.777778 4.8H1.55556V13.6C1.55556 14.9255 2.60022 16 3.88889 16H10.1111C11.3998 16 12.4444 14.9255 12.4444 13.6V4.8H13.2222C13.6518 4.8 14 4.44183 14 4C14 3.55817 13.6518 3.2 13.2222 3.2ZM5.44444 2.4C5.44444 1.95817 5.79267 1.6 6.22222 1.6H7.77778C8.20733 1.6 8.55556 1.95817 8.55556 2.4V3.2H5.44444V2.4ZM10.1111 14.4C10.5407 14.4 10.8889 14.0418 10.8889 13.6V4.8H3.11111V13.6C3.11111 14.0418 3.45933 14.4 3.88889 14.4H10.1111Z" fill="white"/>
</svg>
