<?xml version="1.0" encoding="UTF-8"?>
<svg version="1.1" xmlns="http://www.w3.org/2000/svg" width="192" height="192">
<path d="M0 0 C11.95179554 6.78548388 21.43300414 18.54221933 31.12768555 28.16015625 C33.16492029 30.17955695 35.21033997 32.19008049 37.26342773 34.19335938 C39.76960017 36.63886249 42.26027988 39.09921611 44.74111366 41.57041168 C46.12762298 42.94439376 47.5287328 44.30359307 48.93022156 45.66229248 C55.38235028 52.1353656 60.7507974 59.26956774 61.62890625 68.66015625 C61.42981125 80.17253194 60.00934382 87.54826456 51.9375 96.125 C51.42024353 96.67971481 50.90298706 97.23442963 50.37005615 97.80595398 C42.85131296 105.80344705 35.03247989 113.51095645 27.25 121.25 C25.66643078 122.82853944 24.08309593 124.40731403 22.5 125.98632812 C18.66935718 129.80609338 14.83585877 133.62297306 11 137.4375 C14.11772677 141.12208983 17.21672032 144.78425126 20.6484375 148.18359375 C21.26074219 148.79267578 21.87304688 149.40175781 22.50390625 150.02929688 C23.12136719 150.63837891 23.73882812 151.24746094 24.375 151.875 C25.33599609 152.82922852 25.33599609 152.82922852 26.31640625 153.80273438 C27.87530879 155.35000332 29.43651416 156.89486492 31 158.4375 C28.65241625 164.11151867 23.73048175 168.07894526 19.46191406 172.34619141 C17.89048667 173.92197044 16.33574106 175.51300313 14.78125 177.10546875 C6.58964549 185.38906227 -0.53178844 190.63766627 -12.625 190.75 C-30.77754226 190.7682662 -41.05691455 176.56083557 -53.078125 164.59765625 C-53.79394493 163.88591185 -54.50976486 163.17416744 -55.24727631 162.44085503 C-59.02847838 158.68040023 -62.80647604 154.91675866 -66.58203125 151.15063477 C-70.46943377 147.27433562 -74.36838192 143.40986558 -78.26997757 139.54786015 C-81.28271882 136.56129323 -84.28651194 133.56584617 -87.28798676 130.56796074 C-88.72147944 129.13932358 -90.15833506 127.71405217 -91.59867096 126.29231453 C-93.61344945 124.30196721 -95.61513602 122.2992691 -97.61425781 120.29321289 C-98.20445709 119.71582367 -98.79465637 119.13843445 -99.40274048 118.54354858 C-106.88783102 110.96383253 -109.30412633 103.13406508 -109.31469727 92.62890625 C-108.9980631 75.99156094 -94.08288492 65.33508777 -83.16015625 54.359375 C-82.09253964 53.2856451 -82.09253964 53.2856451 -81.00335503 52.19022369 C-77.24290023 48.40902162 -73.47925866 44.63102396 -69.71313477 40.85546875 C-65.83683562 36.96806623 -61.97236558 33.06911808 -58.11036015 29.16752243 C-55.12379323 26.15478118 -52.12834617 23.15098806 -49.13046074 20.14951324 C-47.70182358 18.71602056 -46.27655217 17.27916494 -44.85481453 15.83882904 C-42.86446721 13.82405055 -40.8617691 11.82236398 -38.85571289 9.82324219 C-38.27832367 9.23304291 -37.70093445 8.64284363 -37.10604858 8.03475952 C-27.61769995 -1.33513615 -12.69647761 -5.21223818 0 0 Z M-18.24690247 34.43556213 C-18.82880844 35.02465866 -19.41071442 35.61375519 -20.01025391 36.22070312 C-20.6250209 36.83517807 -21.2397879 37.44965302 -21.8731842 38.08274841 C-23.91241727 40.12337943 -25.94446741 42.17101275 -27.9765625 44.21875 C-29.3857441 45.63166008 -30.79536671 47.04413044 -32.20541382 48.45617676 C-35.92194915 52.18036156 -39.6324405 55.9105127 -43.34173584 59.64190674 C-47.12525729 63.44585833 -50.91442128 67.24417987 -54.703125 71.04296875 C-62.14097325 78.50229009 -69.57245331 85.96792192 -77 93.4375 C-75.36256066 97.61365799 -72.30218208 100.4023153 -69.17333984 103.49121094 C-68.28045006 104.3845388 -68.28045006 104.3845388 -67.36952209 105.2959137 C-65.40469823 107.25934643 -63.43288961 109.21560373 -61.4609375 111.171875 C-60.09572521 112.5333564 -58.73095439 113.89528061 -57.36660767 115.25762939 C-53.77726841 118.83933824 -50.1819632 122.4149999 -46.58538818 125.98944092 C-42.91528681 129.63907121 -39.25085171 133.29438092 -35.5859375 136.94921875 C-28.39616348 144.11755329 -21.20007484 151.279513 -14 158.4375 C-10.57517293 156.81973883 -8.34309478 155.01406756 -5.671875 152.3046875 C-4.87265625 151.49902344 -4.0734375 150.69335938 -3.25 149.86328125 C-2.425 149.02152344 -1.6 148.17976563 -0.75 147.3125 C0.09046875 146.46300781 0.9309375 145.61351562 1.796875 144.73828125 C3.86915683 142.64245077 5.93662393 140.54209287 8 138.4375 C3.61557474 133.18575074 -1.00842093 128.30527527 -5.875 123.5 C-6.56335938 122.81615234 -7.25171875 122.13230469 -7.9609375 121.42773438 C-9.63833641 119.76198407 -11.31848946 118.09909639 -13 116.4375 C-8.43852453 110.96436034 -3.59258679 105.89795191 1.4609375 100.87890625 C2.25150543 100.08975327 3.04207336 99.30060028 3.8565979 98.48753357 C6.36037626 95.98931339 8.86762475 93.49460956 11.375 91 C13.08226248 89.29775792 14.78929609 87.59528627 16.49609375 85.89257812 C20.66141898 81.73822637 24.82959219 77.58674919 29 73.4375 C27.55662966 70.13555109 25.76269557 67.94732507 23.22460938 65.40332031 C22.45040649 64.62281311 21.67620361 63.84230591 20.87854004 63.03814697 C20.04205933 62.20571472 19.20557861 61.37328247 18.34375 60.515625 C17.48567749 59.65563904 16.62760498 58.79565308 15.74353027 57.90960693 C13.93027533 56.09499174 12.11449519 54.28289684 10.29638672 52.47314453 C7.50385862 49.69134379 4.72217542 46.89901855 1.94140625 44.10546875 C0.18032867 42.34571228 -1.58136894 40.58657605 -3.34375 38.828125 C-4.18023071 37.98759583 -5.01671143 37.14706665 -5.87854004 36.28106689 C-6.65274292 35.51316833 -7.4269458 34.74526978 -8.22460938 33.95410156 C-8.90696655 33.27333557 -9.58932373 32.59256958 -10.2923584 31.89117432 C-13.88443916 28.83332216 -15.42023808 31.62348264 -18.24690247 34.43556213 Z " fill="#97C93E" transform="translate(119,1.5625)"/>
</svg>
